<svg width="23" height="17" viewBox="0 0 23 17" fill="none" xmlns="http://www.w3.org/2000/svg">
<path d="M13.5833 6.05216V4.80216C14.1562 4.55911 14.7422 4.37682 15.3411 4.25529C15.9401 4.13376 16.5694 4.073 17.2292 4.073C17.6805 4.073 18.1233 4.10772 18.5573 4.17716C18.9913 4.24661 19.4167 4.33341 19.8333 4.43758V5.58341C19.4167 5.42716 18.9956 5.30998 18.5703 5.23185C18.145 5.15373 17.6979 5.11466 17.2292 5.11466C16.5694 5.11466 15.9358 5.19713 15.3281 5.36206C14.7205 5.52699 14.1389 5.75703 13.5833 6.05216ZM13.5833 11.7813V10.5053C14.1562 10.2622 14.7422 10.0843 15.3411 9.97144C15.9401 9.85859 16.5694 9.80216 17.2292 9.80216C17.6805 9.80216 18.1233 9.83689 18.5573 9.90633C18.9913 9.97578 19.4167 10.0626 19.8333 10.1667V11.3126C19.4167 11.1563 18.9956 11.0391 18.5703 10.961C18.145 10.8829 17.6979 10.8438 17.2292 10.8438C16.5694 10.8438 15.9358 10.922 15.3281 11.0782C14.7205 11.2345 14.1389 11.4688 13.5833 11.7813ZM13.5833 8.91675V7.66675C14.1562 7.42369 14.7422 7.2414 15.3411 7.11987C15.9401 6.99835 16.5694 6.93758 17.2292 6.93758C17.6805 6.93758 18.1233 6.9723 18.5573 7.04175C18.9913 7.11119 19.4167 7.198 19.8333 7.30216V8.448C19.4167 8.29175 18.9956 8.17456 18.5703 8.09644C18.145 8.01831 17.6979 7.97925 17.2292 7.97925C16.5694 7.97925 15.9358 8.06171 15.3281 8.22664C14.7205 8.39157 14.1389 8.62161 13.5833 8.91675ZM5.45832 13.1876C6.39582 13.1876 7.30294 13.2961 8.17968 13.5131C9.05641 13.7301 9.92013 14.0556 10.7708 14.4897V3.36987C9.98957 2.84904 9.14322 2.44539 8.23176 2.15894C7.3203 1.87248 6.39582 1.72925 5.45832 1.72925C4.7986 1.72925 4.1519 1.81171 3.51822 1.97664C2.88454 2.14157 2.24652 2.34557 1.60416 2.58862V13.8907C2.14235 13.6476 2.75433 13.4697 3.44009 13.3569C4.12586 13.244 4.7986 13.1876 5.45832 13.1876ZM12.3333 14.4897C13.2014 14.0556 14.0521 13.7301 14.8854 13.5131C15.7187 13.2961 16.6042 13.1876 17.5417 13.1876C18.2014 13.1876 18.8828 13.2397 19.5859 13.3438C20.2891 13.448 20.8924 13.5869 21.3958 13.7605V2.58862C20.8055 2.29348 20.1805 2.07647 19.5208 1.93758C18.8611 1.79869 18.2014 1.72925 17.5417 1.72925C16.6042 1.72925 15.697 1.87248 14.8203 2.15894C13.9436 2.44539 13.1146 2.84904 12.3333 3.36987V14.4897ZM11.5521 16.8334C10.6667 16.1737 9.70311 15.6659 8.66145 15.31C7.61978 14.9541 6.55207 14.7761 5.45832 14.7761C4.81596 14.7761 4.19096 14.8542 3.58332 15.0105C2.97568 15.1667 2.36805 15.3577 1.76041 15.5834C1.3611 15.7744 0.974816 15.7483 0.601552 15.5053C0.228288 15.2622 0.0416565 14.915 0.0416565 14.4636V2.40633C0.0416565 2.14591 0.10242 1.9072 0.223948 1.69019C0.345476 1.47317 0.527768 1.3039 0.770823 1.18237C1.49999 0.835151 2.25954 0.579075 3.04947 0.414144C3.8394 0.249214 4.64235 0.166748 5.45832 0.166748C6.55207 0.166748 7.61544 0.314318 8.64843 0.609457C9.68141 0.904595 10.6493 1.35598 11.5521 1.96362C12.4375 1.35598 13.388 0.904595 14.4036 0.609457C15.4193 0.314318 16.4653 0.166748 17.5417 0.166748C18.3576 0.166748 19.1562 0.249214 19.9375 0.414144C20.7187 0.579075 21.4739 0.835151 22.2031 1.18237C22.4462 1.3039 22.6328 1.47317 22.763 1.69019C22.8932 1.9072 22.9583 2.14591 22.9583 2.40633V14.4636C22.9583 14.9497 22.763 15.3187 22.3724 15.5704C21.9818 15.8221 21.5955 15.8265 21.2135 15.5834C20.6233 15.3404 20.0243 15.145 19.4167 14.9975C18.809 14.8499 18.184 14.7761 17.5417 14.7761C16.4479 14.7761 15.3976 14.9584 14.3906 15.323C13.3837 15.6876 12.4375 16.1911 11.5521 16.8334Z" fill="#AB66E4"/>
</svg>
