<svg width="36" height="12" viewBox="0 0 36 12" fill="none" xmlns="http://www.w3.org/2000/svg">
<path d="M14.7 12C14.2 12 13.7917 11.8417 13.475 11.525C13.1583 11.2083 13 10.8 13 10.3V8H15.4V9.6H20.6V6.95H14.7C14.2333 6.95 13.8333 6.78333 13.5 6.45C13.1667 6.11667 13 5.71667 13 5.25V1.7C13 1.2 13.1583 0.791667 13.475 0.475C13.7917 0.158334 14.2 0 14.7 0H21.3C21.8 0 22.2083 0.158334 22.525 0.475C22.8417 0.791667 23 1.2 23 1.7V4H20.6V2.4H15.4V5.05H21.3C21.7667 5.05 22.1667 5.21667 22.5 5.55C22.8333 5.88333 23 6.28333 23 6.75V10.3C23 10.8 22.8417 11.2083 22.525 11.525C22.2083 11.8417 21.8 12 21.3 12H14.7ZM27.7 12C27.2 12 26.7917 11.8417 26.475 11.525C26.1583 11.2083 26 10.8 26 10.3V8H28.4V9.6H33.6V6.95H27.7C27.2333 6.95 26.8333 6.78333 26.5 6.45C26.1667 6.11667 26 5.71667 26 5.25V1.7C26 1.2 26.1583 0.791667 26.475 0.475C26.7917 0.158334 27.2 0 27.7 0H34.3C34.8 0 35.2083 0.158334 35.525 0.475C35.8417 0.791667 36 1.2 36 1.7V4H33.6V2.4H28.4V5.05H34.3C34.7667 5.05 35.1667 5.21667 35.5 5.55C35.8333 5.88333 36 6.28333 36 6.75V10.3C36 10.8 35.8417 11.2083 35.525 11.525C35.2083 11.8417 34.8 12 34.3 12H27.7ZM1.7 12C1.2 12 0.791667 11.8417 0.475 11.525C0.158333 11.2083 0 10.8 0 10.3V1.7C0 1.2 0.158333 0.791667 0.475 0.475C0.791667 0.158334 1.2 0 1.7 0H8.3C8.8 0 9.20833 0.158334 9.525 0.475C9.84167 0.791667 10 1.2 10 1.7V4H7.6V2.4H2.4V9.6H7.6V8H10V10.3C10 10.8 9.84167 11.2083 9.525 11.525C9.20833 11.8417 8.8 12 8.3 12H1.7Z" fill="#4870FD"/>
</svg>
