<svg width="22" height="24" viewBox="0 0 22 24" fill="none" xmlns="http://www.w3.org/2000/svg">
<path d="M10.0216 0.304741C10.6141 -0.0344078 11.3859 -0.0359397 11.9779 0.304741C14.9562 1.98763 17.9354 3.66789 20.9132 5.3518C21.4733 5.66729 21.8479 6.29061 21.8422 6.93598V17.0609C21.8464 17.733 21.4347 18.3712 20.8438 18.6795C17.8753 20.3532 14.9083 22.0288 11.9403 23.7024C11.3356 24.0482 10.5483 24.0216 9.96247 23.6475C9.07251 23.1315 8.18102 22.6182 7.29098 22.1028C7.10911 21.9944 6.90409 21.9081 6.77566 21.7317C6.88919 21.5787 7.09217 21.5596 7.25711 21.4928C7.6286 21.3747 7.96979 21.1851 8.31106 21.0011C8.39736 20.942 8.50272 20.9647 8.58545 21.0175C9.34647 21.4538 10.1008 21.9029 10.8643 22.335C11.0272 22.4291 11.1922 22.3042 11.3314 22.2266C14.2444 20.5802 17.161 18.9401 20.0735 17.2932C20.1814 17.2413 20.2411 17.1267 20.2323 17.0085C20.2344 13.6685 20.2329 10.3279 20.2334 6.98789C20.2457 6.85376 20.1681 6.73044 20.0468 6.67555C17.0886 5.00959 14.1319 3.34108 11.1742 1.6747C11.123 1.63947 11.0623 1.62057 11.0001 1.62048C10.9379 1.62038 10.8771 1.63911 10.8258 1.67419C7.86809 3.34108 4.91192 5.01112 1.95421 6.677C1.83336 6.73198 1.75226 6.85325 1.76664 6.98789C1.76715 10.3279 1.76664 13.6685 1.76664 17.009C1.76151 17.0667 1.77418 17.1245 1.80294 17.1748C1.8317 17.2251 1.87517 17.2653 1.92749 17.2901C2.71677 17.7377 3.50706 18.1821 4.29685 18.6281C4.74179 18.8676 5.28809 19.0099 5.7783 18.8264C6.21089 18.6713 6.51413 18.2298 6.50587 17.7705C6.50996 14.45 6.50383 11.129 6.50894 7.809C6.49813 7.66159 6.63796 7.5398 6.78128 7.55368C7.16051 7.55112 7.54026 7.54857 7.91949 7.5547C8.07779 7.55112 8.18672 7.70985 8.16715 7.85836C8.16562 11.1999 8.17123 14.5415 8.1646 17.883C8.16562 18.7736 7.79975 19.7426 6.976 20.1784C5.96119 20.7041 4.70689 20.5926 3.70434 20.0885C2.83643 19.6553 2.00817 19.1441 1.15566 18.68C0.563235 18.3733 0.153618 17.7326 0.157788 17.061V6.93598C0.151575 6.27725 0.541107 5.64261 1.11864 5.33172C4.08664 3.65674 7.05413 1.98049 10.0216 0.304741Z" fill="#8CC84B"/>
<path d="M12.6108 7.3184C13.9053 7.23508 15.2911 7.26904 16.4559 7.90674C17.3578 8.39542 17.8578 9.42104 17.8737 10.423C17.8485 10.5581 17.7073 10.6327 17.5782 10.6234C17.2027 10.6229 16.827 10.6285 16.4514 10.6209C16.2921 10.627 16.1995 10.4801 16.1795 10.3393C16.0716 9.85985 15.8102 9.38504 15.3589 9.15381C14.6662 8.807 13.8631 8.82445 13.1078 8.83168C12.5564 8.86096 11.9634 8.9087 11.4963 9.23296C11.1376 9.47857 11.0287 9.9744 11.1567 10.3737C11.2774 10.6604 11.6084 10.753 11.8792 10.8382C13.4392 11.2462 15.0923 11.2056 16.6225 11.7426C17.256 11.9615 17.8758 12.387 18.0926 13.0503C18.3763 13.9393 18.2519 15.002 17.6194 15.7157C17.1065 16.303 16.3594 16.6227 15.6143 16.7963C14.6231 17.0173 13.5944 17.0229 12.5878 16.9248C11.6412 16.8169 10.6562 16.5682 9.92548 15.9233C9.30063 15.3807 8.99544 14.5353 9.02574 13.7194C9.03297 13.5816 9.17016 13.4856 9.30216 13.4969C9.68037 13.4938 10.0586 13.4928 10.4368 13.4974C10.5879 13.4866 10.6999 13.6171 10.7076 13.7595C10.7774 14.2163 10.9491 14.6957 11.3474 14.9665C12.116 15.4624 13.0805 15.4284 13.9607 15.4423C14.6899 15.41 15.5085 15.4002 16.1035 14.9182C16.4175 14.6433 16.5105 14.1834 16.4256 13.7878C16.3337 13.4537 15.9843 13.2981 15.6842 13.1963C14.1442 12.7091 12.4726 12.8859 10.9475 12.335C10.3284 12.1162 9.72965 11.7025 9.49178 11.0664C9.15986 10.1661 9.31195 9.05262 10.0108 8.363C10.6921 7.67704 11.6757 7.41287 12.6108 7.31832V7.3184Z" fill="#8CC84B"/>
</svg>
