<svg width="22" height="12" viewBox="0 0 22 12" fill="none" xmlns="http://www.w3.org/2000/svg">
<path d="M13.7 12C13.2 12 12.7917 11.8417 12.475 11.525C12.1583 11.2083 12 10.8 12 10.3V8H14.4V9.6H19.6V6.95H13.7C13.2333 6.95 12.8333 6.78333 12.5 6.45C12.1667 6.11667 12 5.71667 12 5.25V1.7C12 1.2 12.1583 0.791667 12.475 0.475C12.7917 0.158334 13.2 0 13.7 0H20.3C20.8 0 21.2083 0.158334 21.525 0.475C21.8417 0.791667 22 1.2 22 1.7V4H19.6V2.4H14.4V5.05H20.3C20.7667 5.05 21.1667 5.21667 21.5 5.55C21.8333 5.88333 22 6.28333 22 6.75V10.3C22 10.8 21.8417 11.2083 21.525 11.525C21.2083 11.8417 20.8 12 20.3 12H13.7ZM1.7 12C1.2 12 0.791667 11.8417 0.475 11.525C0.158334 11.2083 0 10.8 0 10.3V7H2.4V9.6H6.6V0H9V10.3C9 10.8 8.84167 11.2083 8.525 11.525C8.20833 11.8417 7.8 12 7.3 12H1.7Z" fill="#E2C422"/>
</svg>
