<svg width="24" height="24" viewBox="0 0 24 24" fill="none" xmlns="http://www.w3.org/2000/svg">
<path d="M22.9385 10.9875L13.0122 1.06166C12.4406 0.489864 11.5135 0.489864 10.9415 1.06166L8.88047 3.12318L11.495 5.7377C12.1027 5.53234 12.7994 5.67015 13.2836 6.15461C13.7708 6.64203 13.9074 7.34471 13.6968 7.95461L16.217 10.4746C16.8269 10.2643 17.5301 10.4004 18.017 10.888C18.6975 11.5685 18.6975 12.671 18.017 13.3519C17.3361 14.0325 16.2336 14.0325 15.5525 13.3519C15.0408 12.8397 14.9141 12.0876 15.1737 11.4571L12.8232 9.10685V15.2917C12.9889 15.3738 13.1455 15.4832 13.2836 15.6212C13.964 16.3017 13.964 17.4042 13.2836 18.0853C12.6032 18.7655 11.4999 18.7655 10.82 18.0853C10.1396 17.4039 10.1396 16.3014 10.82 15.6212C10.9883 15.4532 11.183 15.3261 11.3908 15.241V8.99848C11.183 8.91337 10.9888 8.78743 10.82 8.61819C10.3046 8.10306 10.1807 7.34644 10.4449 6.71353L7.86752 4.13564L1.06093 10.9415C0.489132 11.5138 0.489132 12.4409 1.06093 13.0127L10.9878 22.9388C11.5593 23.5106 12.4862 23.5106 13.0585 22.9388L22.9385 13.0587C23.5103 12.4869 23.5103 11.5593 22.9385 10.9875Z" fill="#F05133"/>
</svg>
