<svg width="24" height="23" viewBox="0 0 24 23" fill="none" xmlns="http://www.w3.org/2000/svg">
<path d="M12.3437 25.0833L17.4625 10.0833H19.7815L25.0417 25.0833H22.5812L21.4217 21.1458H15.9919L14.6627 25.0833H12.3437ZM16.6141 18.9583H20.6299L18.6503 12.8958H18.5937L16.6141 18.9583ZM3.43532 21.3333L1.87989 19.6145L7.64912 13.2395C6.93268 12.3228 6.29637 11.401 5.74019 10.4739C5.184 9.54679 4.69852 8.58325 4.28374 7.58325H6.74414C7.06466 8.27075 7.41816 8.92179 7.80467 9.53638C8.19117 10.151 8.62951 10.7812 9.11971 11.427C9.96813 10.4478 10.6751 9.43221 11.2408 8.38013C11.8064 7.32804 12.2871 6.22909 12.6831 5.08325H0.0416565V2.58325H7.96021V0.083252H10.2227V2.58325H18.1412V5.08325H14.9455C14.5307 6.52075 13.9792 7.93221 13.2911 9.31763C12.6029 10.703 11.7592 12.0208 10.76 13.2708L13.5315 16.3645L12.6831 18.8958L9.09143 15.0833L3.43532 21.3333Z" fill="#AB66E4"/>
</svg>
