<svg width="24" height="21" viewBox="0 0 24 21" fill="none" xmlns="http://www.w3.org/2000/svg">
<path d="M11.3698 20.9166L16.0833 8.41658H18.2187L23.0625 20.9166H20.7969L19.7292 17.6353H14.7292L13.5052 20.9166H11.3698ZM15.3021 15.8124H19L17.1771 10.7603H17.125L15.3021 15.8124ZM3.16666 17.7916L1.73436 16.3593L7.04686 11.0468C6.38714 10.2829 5.8012 9.51468 5.28905 8.74211C4.7769 7.96954 4.32985 7.16659 3.94791 6.33325H6.21353C6.50867 6.90617 6.83419 7.4487 7.19009 7.96086C7.546 8.47301 7.94964 8.99818 8.40103 9.53638C9.18228 8.7204 9.83332 7.87405 10.3542 6.99731C10.875 6.12058 11.3177 5.20478 11.6823 4.24992H0.0416565V2.16659H7.33332V0.083252H9.41666V2.16659H16.7083V4.24992H13.7656C13.3837 5.44784 12.8759 6.62405 12.2422 7.77856C11.6085 8.93308 10.8316 10.0312 9.91145 11.0728L12.4635 13.651L11.6823 15.7603L8.37499 12.5833L3.16666 17.7916Z" fill="#AB66E4"/>
</svg>
