<svg width="310" height="39" viewBox="0 0 310 39" fill="none" xmlns="http://www.w3.org/2000/svg">
<path d="M0.0340881 35V0.0909119H7.41477V15.483H7.875L20.4375 0.0909119H29.2841L16.3295 15.7216L29.4375 35H20.608L11.0455 20.6477L7.41477 25.0795V35H0.0340881Z" fill="#141414"/>
<path d="M40.4574 35.4943C38.7869 35.4943 37.2983 35.2045 35.9915 34.625C34.6847 34.0341 33.6506 33.1648 32.8892 32.017C32.1392 30.858 31.7642 29.4148 31.7642 27.6875C31.7642 26.233 32.0312 25.0114 32.5653 24.0227C33.0994 23.0341 33.8267 22.2386 34.7472 21.6364C35.6676 21.0341 36.7131 20.5795 37.8835 20.2727C39.0653 19.9659 40.304 19.75 41.5994 19.625C43.1222 19.4659 44.3494 19.3182 45.2812 19.1818C46.2131 19.0341 46.8892 18.8182 47.3097 18.5341C47.7301 18.25 47.9403 17.8295 47.9403 17.2727V17.1705C47.9403 16.0909 47.5994 15.2557 46.9176 14.6648C46.2472 14.0739 45.2926 13.7784 44.054 13.7784C42.7472 13.7784 41.7074 14.0682 40.9347 14.6477C40.1619 15.2159 39.6506 15.9318 39.4006 16.7955L32.6847 16.25C33.0256 14.6591 33.696 13.2841 34.696 12.125C35.696 10.9545 36.9858 10.0568 38.5653 9.43182C40.1562 8.79546 41.9972 8.47728 44.0881 8.47728C45.5426 8.47728 46.9347 8.64773 48.2642 8.98864C49.6051 9.32955 50.7926 9.85796 51.8267 10.5739C52.8722 11.2898 53.696 12.2102 54.2983 13.3352C54.9006 14.4489 55.2017 15.7841 55.2017 17.3409V35H48.3153V31.3693H48.1108C47.6903 32.1875 47.1278 32.9091 46.4233 33.5341C45.7187 34.1477 44.8722 34.6307 43.8835 34.983C42.8949 35.3239 41.7528 35.4943 40.4574 35.4943ZM42.5369 30.483C43.6051 30.483 44.5483 30.2727 45.3665 29.8523C46.1847 29.4205 46.8267 28.8409 47.2926 28.1136C47.7585 27.3864 47.9915 26.5625 47.9915 25.642V22.8636C47.7642 23.0114 47.4517 23.1477 47.054 23.2727C46.6676 23.3864 46.2301 23.4943 45.7415 23.5966C45.2528 23.6875 44.7642 23.7727 44.2756 23.8523C43.7869 23.9205 43.3437 23.983 42.946 24.0398C42.0937 24.1648 41.3494 24.3636 40.7131 24.6364C40.0767 24.9091 39.5824 25.2784 39.2301 25.7443C38.8778 26.1989 38.7017 26.767 38.7017 27.4489C38.7017 28.4375 39.0597 29.1932 39.7756 29.7159C40.5028 30.2273 41.4233 30.483 42.5369 30.483Z" fill="#141414"/>
<path d="M66 35L58.875 8.81818H66.2216L70.2784 26.4091H70.517L74.7443 8.81818H81.9545L86.25 26.3068H86.4716L90.4602 8.81818H97.7898L90.6818 35H82.9943L78.4943 18.5341H78.1705L73.6705 35H66Z" fill="#141414"/>
<path d="M115.589 8.81818V14.2727H99.8224V8.81818H115.589ZM103.402 2.54546H110.663V26.9545C110.663 27.625 110.766 28.1477 110.97 28.5227C111.175 28.8864 111.459 29.142 111.822 29.2898C112.197 29.4375 112.629 29.5114 113.118 29.5114C113.459 29.5114 113.8 29.483 114.141 29.4261C114.482 29.358 114.743 29.3068 114.925 29.2727L116.067 34.6761C115.703 34.7898 115.192 34.9205 114.533 35.0682C113.874 35.2273 113.072 35.3239 112.129 35.358C110.379 35.4261 108.845 35.1932 107.527 34.6591C106.22 34.125 105.203 33.2955 104.476 32.1705C103.749 31.0455 103.391 29.625 103.402 27.9091V2.54546Z" fill="#141414"/>
<path d="M134.246 8.81818V14.2727H118.479V8.81818H134.246ZM122.058 2.54546H129.32V26.9545C129.32 27.625 129.422 28.1477 129.626 28.5227C129.831 28.8864 130.115 29.142 130.479 29.2898C130.854 29.4375 131.286 29.5114 131.774 29.5114C132.115 29.5114 132.456 29.483 132.797 29.4261C133.138 29.358 133.399 29.3068 133.581 29.2727L134.723 34.6761C134.359 34.7898 133.848 34.9205 133.189 35.0682C132.53 35.2273 131.729 35.3239 130.786 35.358C129.036 35.4261 127.501 35.1932 126.183 34.6591C124.876 34.125 123.859 33.2955 123.132 32.1705C122.405 31.0455 122.047 29.625 122.058 27.9091V2.54546Z" fill="#141414"/>
<path d="M150.626 35.5114C147.933 35.5114 145.615 34.9659 143.672 33.875C141.74 32.7727 140.251 31.2159 139.206 29.2045C138.161 27.1818 137.638 24.7898 137.638 22.0284C137.638 19.3352 138.161 16.9716 139.206 14.9375C140.251 12.9034 141.723 11.3182 143.621 10.1818C145.53 9.04546 147.768 8.47728 150.337 8.47728C152.064 8.47728 153.672 8.75569 155.161 9.3125C156.661 9.85796 157.967 10.6818 159.081 11.7841C160.206 12.8864 161.081 14.2727 161.706 15.9432C162.331 17.6023 162.643 19.5455 162.643 21.7727V23.767H140.536V19.267H155.808C155.808 18.2216 155.581 17.2955 155.126 16.4886C154.672 15.6818 154.041 15.0511 153.234 14.5966C152.439 14.1307 151.513 13.8977 150.456 13.8977C149.354 13.8977 148.376 14.1534 147.524 14.6648C146.683 15.1648 146.024 15.8409 145.547 16.6932C145.07 17.5341 144.825 18.4716 144.814 19.5057V23.7841C144.814 25.0795 145.053 26.1989 145.53 27.142C146.018 28.0852 146.706 28.8125 147.592 29.3239C148.479 29.8352 149.53 30.0909 150.746 30.0909C151.553 30.0909 152.291 29.9773 152.962 29.75C153.632 29.5227 154.206 29.1818 154.683 28.7273C155.161 28.2727 155.524 27.7159 155.774 27.0568L162.49 27.5C162.149 29.1136 161.45 30.5227 160.393 31.7273C159.348 32.9205 157.996 33.8523 156.337 34.5227C154.689 35.1818 152.786 35.5114 150.626 35.5114Z" fill="#141414"/>
<path d="M167.382 35V8.81818H174.422V13.3864H174.695C175.172 11.7614 175.973 10.5341 177.098 9.70455C178.223 8.86364 179.518 8.44318 180.984 8.44318C181.348 8.44318 181.74 8.46591 182.161 8.51137C182.581 8.55682 182.95 8.61932 183.268 8.69887V15.142C182.928 15.0398 182.456 14.9489 181.854 14.8693C181.251 14.7898 180.7 14.75 180.2 14.75C179.132 14.75 178.178 14.983 177.337 15.4489C176.507 15.9034 175.848 16.5398 175.359 17.358C174.882 18.1761 174.643 19.1193 174.643 20.1875V35H167.382Z" fill="#141414"/>
<path d="M188.234 26.7798V22.2798L206.234 14.3537V19.5313L193.911 24.4787L194.077 24.2102V24.8494L193.911 24.581L206.234 29.5284V34.706L188.234 26.7798Z" fill="#727272"/>
<path d="M223.045 7.59091L214.608 38.9375H209.916L218.354 7.59091H223.045Z" fill="#727272"/>
<path d="M232.905 35.3196C231.414 35.3196 230.063 34.9361 228.853 34.169C227.651 33.3935 226.696 32.2557 225.989 30.7557C225.29 29.2472 224.941 27.3977 224.941 25.2074C224.941 22.9574 225.303 21.0867 226.027 19.5952C226.752 18.0952 227.715 16.9744 228.917 16.233C230.127 15.483 231.452 15.108 232.892 15.108C233.992 15.108 234.908 15.2955 235.641 15.6705C236.382 16.0369 236.979 16.4972 237.431 17.0511C237.891 17.5966 238.24 18.1335 238.479 18.6619H238.645V8.81818H244.078V35H238.709V31.8551H238.479C238.223 32.4006 237.861 32.9418 237.392 33.4787C236.932 34.0071 236.331 34.446 235.59 34.7955C234.857 35.1449 233.962 35.3196 232.905 35.3196ZM234.631 30.9858C235.509 30.9858 236.25 30.7472 236.855 30.2699C237.469 29.7841 237.938 29.1065 238.262 28.2372C238.594 27.3679 238.76 26.3494 238.76 25.1818C238.76 24.0142 238.598 23 238.275 22.1392C237.951 21.2784 237.482 20.6136 236.868 20.1449C236.255 19.6761 235.509 19.4418 234.631 19.4418C233.736 19.4418 232.982 19.6847 232.368 20.1705C231.755 20.6563 231.29 21.3295 230.975 22.1903C230.659 23.0511 230.502 24.0483 230.502 25.1818C230.502 26.3239 230.659 27.3338 230.975 28.2117C231.299 29.081 231.763 29.7628 232.368 30.2571C232.982 30.7429 233.736 30.9858 234.631 30.9858Z" fill="#727272"/>
<path d="M257.505 35.3835C255.485 35.3835 253.746 34.9744 252.289 34.1563C250.84 33.3295 249.724 32.1619 248.94 30.6534C248.156 29.1364 247.763 27.3423 247.763 25.2713C247.763 23.2514 248.156 21.4787 248.94 19.9531C249.724 18.4276 250.827 17.2386 252.251 16.3864C253.683 15.5341 255.361 15.108 257.288 15.108C258.583 15.108 259.789 15.3168 260.906 15.7344C262.031 16.1435 263.011 16.7614 263.846 17.5881C264.69 18.4148 265.346 19.4545 265.815 20.7074C266.283 21.9517 266.518 23.4091 266.518 25.0795V26.5753H249.937V23.2003H261.391C261.391 22.4162 261.221 21.7216 260.88 21.1165C260.539 20.5114 260.066 20.0384 259.461 19.6974C258.864 19.348 258.17 19.1733 257.377 19.1733C256.55 19.1733 255.817 19.3651 255.178 19.7486C254.548 20.1236 254.053 20.6307 253.695 21.2699C253.337 21.9006 253.154 22.6037 253.146 23.3793V26.5881C253.146 27.5597 253.325 28.3992 253.683 29.1065C254.049 29.8139 254.565 30.3594 255.229 30.7429C255.894 31.1264 256.683 31.3182 257.594 31.3182C258.2 31.3182 258.754 31.233 259.256 31.0625C259.759 30.892 260.19 30.6364 260.548 30.2955C260.906 29.9545 261.178 29.5369 261.366 29.0426L266.403 29.375C266.147 30.5852 265.623 31.6421 264.83 32.5455C264.046 33.4403 263.032 34.1392 261.788 34.642C260.552 35.1364 259.124 35.3835 257.505 35.3835Z" fill="#727272"/>
<path d="M287.851 15.3636L280.986 35H274.85L267.985 15.3636H273.738L277.816 29.4134H278.02L282.086 15.3636H287.851Z" fill="#727272"/>
<path d="M309.699 26.7798L291.699 34.706V29.5284L304.023 24.581L303.857 24.8494V24.2102L304.023 24.4787L291.699 19.5313V14.3537L309.699 22.2798V26.7798Z" fill="#727272"/>
</svg>
